<svg width="20" height="20" viewBox="0 0 20 20" fill="none" xmlns="http://www.w3.org/2000/svg">
<g clip-path="url(#clip0_437_8085)">
<mask id="mask0_437_8085" style="mask-type:alpha" maskUnits="userSpaceOnUse" x="0" y="0" width="20" height="20">
<rect width="20" height="20" fill="#D9D9D9"/>
</mask>
<g mask="url(#mask0_437_8085)">
<path d="M9.10418 14.8125L12.9167 10H9.81251L10.3542 5.39583L6.75001 11H9.79168L9.10418 14.8125ZM8.00001 12.5H5.37501C5.08335 12.5 4.86807 12.3715 4.72918 12.1146C4.59029 11.8576 4.59724 11.6042 4.75001 11.3542L10.3958 2.54167C10.507 2.34722 10.6667 2.21875 10.875 2.15625C11.0833 2.09375 11.2917 2.09722 11.5 2.16667C11.7083 2.23611 11.8715 2.36458 11.9896 2.55208C12.1077 2.73958 12.1528 2.94444 12.125 3.16667L11.5 8.5H14.4583C14.7778 8.5 15.0035 8.63889 15.1354 8.91667C15.2674 9.19444 15.2361 9.45833 15.0417 9.70833L8.87501 17.5208C8.73613 17.6875 8.56599 17.7986 8.3646 17.8542C8.16321 17.9097 7.96529 17.8889 7.77085 17.7917C7.5764 17.6944 7.4271 17.5521 7.32293 17.3646C7.21876 17.1771 7.18751 16.9792 7.22918 16.7708L8.00001 12.5Z" fill="#BAC8DE"/>
</g>
</g>
<defs>
<clipPath id="clip0_437_8085">
<rect width="20" height="20" fill="white"/>
</clipPath>
</defs>
</svg>
